<svg viewBox="0 0 84 60" xmlns="http://www.w3.org/2000/svg" xmlns:xlink="http://www.w3.org/1999/xlink" width="84.000000" height="60.000000" fill="none" customFrame="#000000">
	<path id="path4" d="M15 1.5C15 0.672001 14.328 0 13.5 0L1.5 0C0.672001 0 0 0.672001 0 1.5C0 1.5 -0.00449991 16.026 5.73 30.5505C11.55 45.2955 23.2185 60 46.5 60C47.328 60 48 59.328 48 58.5L48 37.5495C59.256 38.292 68.2605 47.325 68.9565 58.593C69.006 59.3835 69.6615 60 70.4535 60L82.5 60C83.328 60 84 59.328 84 58.5C84 46.6665 78.0285 36.2145 68.9385 30C78.0285 23.7855 84 13.3335 84 1.50001C84 0.672008 83.328 7.15253e-06 82.5 7.15253e-06L70.4535 7.15253e-06C69.6615 7.15253e-06 69.006 0.616507 68.9565 1.40701C68.2605 12.675 59.256 21.708 48 22.4505L48 1.50001C48 0.672006 47.328 5.72203e-06 46.5 5.72203e-06L34.5 5.72203e-06C33.672 5.72203e-06 33 0.672006 33 1.50001L33 38.5485C30.582 37.7145 26.0235 35.496 22.1205 29.9205C18.2085 24.3315 15 15.471 15 1.5ZM12.012 3C12.3 20.6385 17.664 30.285 22.9395 35.5605C28.6005 41.2215 34.2885 41.985 34.2885 41.985C34.719 42.0465 35.154 41.9175 35.4825 41.6325C35.811 41.349 36 40.935 36 40.5L36 3L45 3L45 24C45 24.828 45.672 25.5 46.5 25.5C59.559 25.5 70.338 15.6615 71.8245 3L80.9655 3C80.4495 13.9665 74.3145 23.475 65.379 28.7055C64.9185 28.974 64.6365 29.4675 64.6365 30C64.6365 30.5325 64.9185 31.026 65.379 31.2945C74.3145 36.525 80.4495 46.0335 80.9655 57L71.8245 57C70.338 44.3385 59.559 34.5 46.5 34.5C45.672 34.5 45 35.172 45 36L45 56.9775C24.279 56.358 13.824 42.885 8.52 29.4495C4.083 18.2085 3.213 6.9675 3.042 3L12.012 3Z" fill="rgb(234,207,175)" fill-rule="evenodd" />
</svg>
