<svg viewBox="0 0 436.969 81.8905" xmlns="http://www.w3.org/2000/svg" xmlns:xlink="http://www.w3.org/1999/xlink" width="436.968811" height="81.890533" fill="none" customFrame="#000000">
	<g id="Логотип">
		<path id="" d="M101.891 20.375C101.965 20.375 102.002 20.491 102.002 20.7229C102.002 20.9456 101.965 21.0569 101.891 21.0569C100.676 21.0569 99.7805 21.3167 99.2053 21.8362C98.6394 22.3464 98.2405 23.3623 98.0085 24.8838L94.0842 51.3799C93.9636 52.0664 93.9033 52.6555 93.9033 53.1472C93.9033 54.0193 94.1213 54.5991 94.5574 54.8867C95.0027 55.1743 95.7959 55.3181 96.937 55.3181C97.0483 55.3181 97.104 55.4341 97.104 55.666C97.104 55.8887 97.0483 56 96.937 56C95.8701 56 95.012 55.9814 94.3625 55.9443L90.6052 55.8887L86.9036 55.9443C86.2542 55.9814 85.3774 56 84.2734 56C84.1621 56 84.1064 55.8887 84.1064 55.666C84.1064 55.4341 84.1621 55.3181 84.2734 55.3181C85.3403 55.3181 86.1382 55.2253 86.667 55.0398C87.2051 54.845 87.5947 54.4832 87.8359 53.9543C88.0864 53.4163 88.3044 52.5581 88.49 51.3799L92.5396 24.2576L77.0928 55.5964C77.0186 55.7542 76.884 55.833 76.6892 55.833C76.4666 55.833 76.3181 55.7356 76.2439 55.5408L69.9678 25.6213L65.8069 48.5967C65.6584 49.3481 65.5842 50.1228 65.5842 50.9207C65.5842 52.3308 65.8579 53.4163 66.4053 54.177C66.9619 54.9377 67.7505 55.3181 68.771 55.3181C68.8823 55.3181 68.938 55.4341 68.938 55.666C68.938 55.8887 68.8823 56 68.771 56C67.8989 56 67.217 55.9814 66.7253 55.9443L63.6499 55.8887L60.9641 55.9443C60.4724 55.9814 59.7302 56 58.7375 56C58.6262 56 58.5706 55.8887 58.5706 55.666C58.5706 55.4341 58.6262 55.3181 58.7375 55.3181C60.0364 55.3181 61.1775 54.729 62.1609 53.5508C63.1536 52.3726 63.8354 50.7769 64.2065 48.7637L69.0076 23.0608C68.1633 21.7249 66.8135 21.0569 64.958 21.0569C64.8374 21.0569 64.7771 20.9456 64.7771 20.7229C64.7771 20.491 64.8374 20.375 64.958 20.375C65.5239 20.375 65.9785 20.3936 66.3218 20.4307L68.604 20.4863L71.9717 20.4307C72.3892 20.3936 72.8623 20.375 73.3911 20.375C73.8086 20.375 74.1379 20.5652 74.3792 20.9456C74.6296 21.3259 74.8894 22.1238 75.1584 23.3391L80.1125 46.885L92.3169 21.7944C92.5024 21.377 92.7854 21.0383 93.1658 20.7786C93.5461 20.5095 93.9636 20.375 94.4182 20.375C94.9563 20.375 95.397 20.3936 95.7402 20.4307L98.1338 20.4863L100.346 20.4307C100.69 20.3936 101.205 20.375 101.891 20.375ZM109.298 56.7932C106.793 56.7932 104.882 55.9861 103.564 54.3718C102.256 52.7576 101.602 50.6609 101.602 48.0818C101.602 46.9407 101.7 45.9109 101.894 44.9924C102.312 42.7195 103.138 40.6924 104.371 38.9111C105.605 37.1206 107.094 35.7336 108.838 34.7502C110.592 33.7576 112.475 33.2612 114.488 33.2612C117.03 33.2612 118.974 34.0312 120.319 35.5713C121.674 37.1021 122.351 39.1616 122.351 41.75C122.351 42.7798 122.24 43.8606 122.017 44.9924C121.516 47.5066 120.611 49.6497 119.303 51.4216C117.995 53.1843 116.455 54.5203 114.683 55.4294C112.92 56.3386 111.125 56.7932 109.298 56.7932ZM111.232 55.3738C112.457 55.3738 113.514 54.6733 114.405 53.2725C115.295 51.8623 115.95 49.9419 116.367 47.5112C116.636 46.0269 116.771 44.5239 116.771 43.0024C116.771 40.5347 116.399 38.5215 115.657 36.9629C114.915 35.4043 113.899 34.625 112.61 34.625C111.469 34.625 110.448 35.293 109.548 36.6289C108.658 37.9556 107.985 39.927 107.53 42.5432C107.271 44.0276 107.141 45.5305 107.141 47.052C107.141 49.5198 107.498 51.5237 108.212 53.0637C108.936 54.6038 109.942 55.3738 111.232 55.3738ZM146.122 32.802C146.196 32.7278 146.27 32.6907 146.344 32.6907C146.465 32.6907 146.581 32.7278 146.692 32.802C146.804 32.8762 146.841 32.9319 146.804 32.969L142.364 57.8787C141.529 62.3596 139.925 65.834 137.55 68.3018C135.175 70.7788 132.257 72.0173 128.796 72.0173C126.783 72.0173 125.136 71.637 123.856 70.8762C122.585 70.1155 121.95 69.1089 121.95 67.8564C121.95 66.8638 122.247 66.103 122.84 65.5742C123.425 65.0454 124.097 64.781 124.858 64.781C125.656 64.781 126.217 65.0176 126.542 65.4907C126.867 65.9639 127.14 66.6782 127.363 67.6338C127.632 68.6914 127.966 69.4939 128.365 70.0413C128.764 70.5979 129.497 70.8762 130.564 70.8762C131.965 70.8762 133.208 70.0505 134.293 68.3992C135.379 66.7478 136.339 63.677 137.174 59.1868L139.275 46.9963C137.837 50.0764 136.121 52.47 134.126 54.177C132.132 55.884 130.183 56.7375 128.281 56.7375C127.103 56.7375 126.171 56.3804 125.484 55.666C124.807 54.9424 124.468 53.8569 124.468 52.4097C124.468 49.8677 125.313 47.0845 127.001 44.0601C128.69 41.0356 130.777 38.4797 133.263 36.3923C135.759 34.3049 138.106 33.2612 140.305 33.2612C140.991 33.2612 141.706 33.3865 142.448 33.637C143.19 33.8782 143.826 34.2446 144.354 34.7363C145.078 34.2075 145.667 33.5627 146.122 32.802ZM131.927 52.5767C133.069 52.5767 134.238 51.9783 135.434 50.7815C136.631 49.5847 137.675 48.1235 138.565 46.3979C139.465 44.6631 140.045 43.0581 140.305 41.583C140.425 40.9336 140.486 40.363 140.486 39.8713C140.486 38.656 140.207 37.7144 139.651 37.0464C139.103 36.3784 138.333 36.0444 137.341 36.0444C135.597 36.0444 134.047 36.9861 132.693 38.8694C131.348 40.7527 130.411 43.1926 129.882 46.1892C129.687 47.4138 129.59 48.3276 129.59 48.9307C129.59 50.1831 129.798 51.1062 130.216 51.7C130.633 52.2844 131.204 52.5767 131.927 52.5767ZM171.432 51.6165C171.469 51.5793 171.525 51.5608 171.599 51.5608C171.711 51.5608 171.803 51.6257 171.878 51.7556C171.961 51.8855 171.966 51.9875 171.891 52.0618C169.452 55.0305 167.322 56.5149 165.504 56.5149C164.511 56.5149 163.788 56.2412 163.333 55.6938C162.879 55.1372 162.651 54.2698 162.651 53.0916C162.651 52.4421 162.707 51.7185 162.818 50.9207L163.5 47.052C162.062 50.095 160.346 52.47 158.351 54.177C156.357 55.884 154.408 56.7375 152.506 56.7375C151.328 56.7375 150.396 56.3804 149.709 55.666C149.032 54.9424 148.693 53.8569 148.693 52.4097C148.693 49.8677 149.538 47.0845 151.226 44.0601C152.915 41.0356 155.002 38.4797 157.488 36.3923C159.984 34.3049 162.331 33.2612 164.53 33.2612C165.216 33.2612 165.931 33.3865 166.673 33.637C167.415 33.8782 168.051 34.2446 168.579 34.7363C169.303 34.2075 169.892 33.5627 170.347 32.802C170.421 32.7278 170.495 32.6907 170.569 32.6907C170.69 32.6907 170.806 32.7278 170.917 32.802C171.029 32.8762 171.066 32.9319 171.029 32.969L167.731 50.9207C167.61 51.4216 167.55 51.8623 167.55 52.2427C167.55 53.1519 167.819 53.6064 168.357 53.6064C169.071 53.6064 170.096 52.9431 171.432 51.6165ZM156.152 52.5767C157.294 52.5767 158.462 51.9783 159.659 50.7815C160.856 49.5847 161.9 48.1235 162.79 46.3979C163.69 44.6631 164.27 43.0581 164.53 41.583C164.65 40.9336 164.711 40.363 164.711 39.8713C164.711 38.656 164.432 37.7144 163.876 37.0464C163.328 36.3784 162.558 36.0444 161.566 36.0444C159.822 36.0444 158.272 36.9861 156.918 38.8694C155.573 40.7527 154.636 43.1926 154.107 46.1892C153.912 47.4138 153.815 48.3276 153.815 48.9307C153.815 50.1831 154.023 51.1062 154.441 51.7C154.858 52.2844 155.429 52.5767 156.152 52.5767ZM212.013 21.864C211.558 24.137 210.454 26.4238 208.701 28.7246C206.956 31.0254 205.041 32.802 202.953 34.0544C204.855 34.2864 206.423 35.1167 207.657 36.5454C208.891 37.9648 209.508 40.0059 209.508 42.6685C209.508 43.7261 209.392 44.8811 209.16 46.1335C208.863 47.8499 208.172 49.5244 207.086 51.1572C206.001 52.79 204.614 54.1213 202.925 55.1511C201.237 56.1716 199.405 56.6819 197.429 56.6819C194.608 56.6819 192.456 55.8191 190.972 54.0935C189.496 52.3586 188.759 49.5754 188.759 45.7439C188.759 43.6472 189.023 41.0635 189.552 37.9927C190.471 32.8994 191.783 28.604 193.49 25.1064C195.197 21.6089 197.192 18.9973 199.474 17.2717C201.756 15.5369 204.187 14.6694 206.766 14.6694C208.436 14.6694 209.754 15.1287 210.718 16.0471C211.692 16.9563 212.18 18.283 212.18 20.0271C212.18 20.6023 212.124 21.2146 212.013 21.864ZM204.261 47.6226C204.567 45.7949 204.721 44.292 204.721 43.1138C204.721 38.0669 202.517 35.5435 198.11 35.5435C197.953 35.5435 197.874 35.3904 197.874 35.0842C197.874 34.7781 197.934 34.625 198.055 34.625C199.15 34.625 200.323 34.0544 201.576 32.9133C202.837 31.7722 203.969 30.2739 204.971 28.4185C205.982 26.5537 206.715 24.5962 207.17 22.5459C207.355 21.4048 207.448 20.491 207.448 19.8044C207.448 18.5149 207.239 17.5269 206.822 16.8403C206.404 16.1538 205.857 15.8105 205.18 15.8105C203.844 15.8105 202.531 16.7151 201.242 18.5242C199.952 20.324 198.774 22.8103 197.707 25.9832C196.64 29.156 195.768 32.7603 195.091 36.7959C194.367 41.0078 194.005 44.5007 194.005 47.2747C194.005 50.1321 194.386 52.2148 195.146 53.5229C195.907 54.8311 197.025 55.4851 198.5 55.4851C199.984 55.4851 201.218 54.7244 202.202 53.2029C203.194 51.6814 203.881 49.8213 204.261 47.6226ZM248.385 51.4355C248.423 51.3984 248.478 51.3799 248.552 51.3799C248.701 51.3799 248.812 51.4495 248.886 51.5886C248.97 51.7185 248.97 51.8391 248.886 51.9504C247.448 53.6204 246.261 54.8171 245.324 55.5408C244.396 56.2644 243.441 56.6262 242.457 56.6262C241.242 56.6262 240.402 56.1067 239.938 55.0676C239.484 54.0193 239.127 52.47 238.867 50.4197C238.635 48.6292 238.375 47.3442 238.088 46.5649C237.809 45.7856 237.271 45.396 236.473 45.396C235.249 45.396 234.154 46.3748 233.189 48.3323C232.224 50.2898 231.454 52.6184 230.879 55.3181C230.694 56.0789 229.631 56.4592 227.692 56.4592C226.44 56.4592 225.814 56.3062 225.814 56L226.036 54.8032C226.417 53.0127 226.625 52.0061 226.663 51.7834L232.02 22.4207C232.132 21.6692 232.187 21.043 232.187 20.542C232.187 19.4473 231.83 18.8999 231.116 18.8999C230.652 18.8999 229.849 19.1643 228.708 19.6931L228.653 19.6931C228.504 19.6931 228.402 19.5911 228.346 19.387C228.291 19.1736 228.337 19.0483 228.486 19.0112L237.322 14.6694L237.434 14.6694C237.591 14.6694 237.735 14.7297 237.865 14.8503C237.995 14.9617 238.041 15.0544 238.004 15.1287L232.312 47.2747C233.444 44.7327 234.79 42.3994 236.348 40.2749C237.907 38.1411 239.484 36.4666 241.08 35.2512C242.675 34.0359 244.104 33.4282 245.366 33.4282C246.275 33.4282 246.994 33.6555 247.523 34.1101C248.061 34.5647 248.33 35.1538 248.33 35.8774C248.33 36.6011 248.079 37.2412 247.578 37.7979C247.087 38.3452 246.405 38.6189 245.533 38.6189C245.115 38.6189 244.744 38.554 244.419 38.4241C244.095 38.2849 243.798 38.1411 243.529 37.9927C243 37.6865 242.601 37.5334 242.332 37.5334C241.618 37.5334 240.583 38.1504 239.229 39.3843C237.883 40.6182 236.543 42.302 235.207 44.4358C236.728 43.0627 238.176 42.3762 239.549 42.3762C240.95 42.3762 241.896 42.9097 242.388 43.9766C242.889 45.0342 243.25 46.5742 243.473 48.5967C243.668 50.146 243.895 51.2825 244.155 52.0061C244.424 52.7297 244.92 53.0916 245.644 53.0916C246.024 53.0916 246.488 52.9106 247.036 52.5488C247.592 52.187 248.042 51.8159 248.385 51.4355ZM272.835 51.6165C272.872 51.5793 272.928 51.5608 273.002 51.5608C273.114 51.5608 273.206 51.6257 273.281 51.7556C273.364 51.8855 273.369 51.9875 273.294 52.0618C270.854 55.0305 268.725 56.5149 266.907 56.5149C265.914 56.5149 265.191 56.2412 264.736 55.6938C264.281 55.1372 264.054 54.2698 264.054 53.0916C264.054 52.4421 264.11 51.7185 264.221 50.9207L264.903 47.052C263.465 50.095 261.749 52.47 259.754 54.177C257.76 55.884 255.811 56.7375 253.909 56.7375C252.731 56.7375 251.799 56.3804 251.112 55.666C250.435 54.9424 250.096 53.8569 250.096 52.4097C250.096 49.8677 250.941 47.0845 252.629 44.0601C254.318 41.0356 256.405 38.4797 258.891 36.3923C261.387 34.3049 263.734 33.2612 265.933 33.2612C266.619 33.2612 267.334 33.3865 268.076 33.637C268.818 33.8782 269.454 34.2446 269.982 34.7363C270.706 34.2075 271.295 33.5627 271.75 32.802C271.824 32.7278 271.898 32.6907 271.972 32.6907C272.093 32.6907 272.209 32.7278 272.32 32.802C272.432 32.8762 272.469 32.9319 272.432 32.969L269.134 50.9207C269.013 51.4216 268.953 51.8623 268.953 52.2427C268.953 53.1519 269.222 53.6064 269.76 53.6064C270.474 53.6064 271.499 52.9431 272.835 51.6165ZM257.555 52.5767C258.697 52.5767 259.865 51.9783 261.062 50.7815C262.259 49.5847 263.303 48.1235 264.193 46.3979C265.093 44.6631 265.673 43.0581 265.933 41.583C266.053 40.9336 266.114 40.363 266.114 39.8713C266.114 38.656 265.835 37.7144 265.279 37.0464C264.731 36.3784 263.961 36.0444 262.969 36.0444C261.225 36.0444 259.675 36.9861 258.321 38.8694C256.976 40.7527 256.039 43.1926 255.51 46.1892C255.315 47.4138 255.218 48.3276 255.218 48.9307C255.218 50.1831 255.426 51.1062 255.844 51.7C256.261 52.2844 256.832 52.5767 257.555 52.5767ZM306.576 51.3799C306.688 51.3799 306.799 51.4587 306.91 51.6165C307.031 51.7649 307.054 51.8762 306.98 51.9504C305.264 53.6204 303.923 54.7986 302.958 55.4851C301.993 56.1716 300.996 56.5149 299.966 56.5149C298.862 56.5149 298.157 56.1345 297.851 55.3738C297.554 54.613 297.443 53.3606 297.517 51.6165L297.851 39.5234L289.71 56C289.59 56.1855 289.358 56.2783 289.014 56.2783C288.755 56.2783 288.588 56.1855 288.513 56L284.798 40.094C283.703 44.7698 282.831 48.1746 282.182 50.3083C281.532 52.4329 280.809 54.0007 280.011 55.012C279.213 56.0139 278.169 56.5149 276.88 56.5149C275.85 56.5149 275.089 56.2505 274.597 55.7217C274.106 55.1836 273.915 54.4971 274.027 53.6621C274.184 52.1777 275.21 51.4355 277.102 51.4355C278.058 51.4355 278.846 51.1619 279.468 50.6145C280.099 50.0671 280.795 48.824 281.555 46.885C282.316 44.946 283.207 41.9216 284.227 37.8118C283.967 37.1345 283.606 36.6057 283.142 36.2253C282.687 35.845 282.214 35.6548 281.722 35.6548C281.082 35.6548 280.419 35.9934 279.732 36.6707C279.695 36.717 279.64 36.7402 279.565 36.7402C279.408 36.7402 279.282 36.6846 279.19 36.5732C279.097 36.4526 279.106 36.3552 279.217 36.281C280.052 35.446 280.924 34.792 281.834 34.3188C282.752 33.8364 283.629 33.5952 284.464 33.5952C285.605 33.5952 286.593 33.8643 287.428 34.4023C288.263 34.9312 288.792 35.7476 289.014 36.8516L291.589 49.5012L298.825 34.7363C298.974 34.3931 299.21 34.1565 299.535 34.0266C299.86 33.8967 300.384 33.8318 301.107 33.8318C301.747 33.8318 302.202 33.8967 302.471 34.0266C302.74 34.1565 302.875 34.3931 302.875 34.7363L302.36 50.9207C302.323 51.802 302.397 52.3865 302.582 52.6741C302.777 52.9524 303.083 53.0916 303.501 53.0916C304.41 53.0916 305.398 52.5396 306.465 51.4355L306.576 51.3799ZM333.591 51.4355C333.628 51.3984 333.688 51.3799 333.772 51.3799C333.92 51.3799 334.032 51.4495 334.106 51.5886C334.18 51.7185 334.18 51.8391 334.106 51.9504C332.742 53.5461 331.508 54.7058 330.404 55.4294C329.3 56.1531 328.215 56.5149 327.148 56.5149C325.367 56.5149 324.476 55.5083 324.476 53.4951C324.476 52.9199 324.532 52.2937 324.643 51.6165L325.673 45.6882L317.351 45.6882L315.639 55.3181C315.454 56.0789 314.391 56.4592 312.452 56.4592C311.2 56.4592 310.574 56.3062 310.574 56L310.796 54.8032C311.177 53.0127 311.386 52.0061 311.423 51.7834L313.761 39.0642C313.835 38.7302 313.872 38.3127 313.872 37.8118C313.872 36.7913 313.547 36.281 312.898 36.281C312.1 36.281 311.001 37.0417 309.6 38.5632C309.563 38.6003 309.507 38.6189 309.433 38.6189C309.312 38.6189 309.215 38.554 309.14 38.4241C309.066 38.2849 309.066 38.1597 309.14 38.0483C310.513 36.4526 311.738 35.293 312.814 34.5693C313.9 33.8457 314.994 33.4839 316.098 33.4839C317.88 33.4839 318.77 34.4905 318.77 36.5037C318.77 37.0789 318.715 37.7051 318.603 38.3823L317.574 44.3105L325.895 44.3105L327.607 34.6807C327.802 33.9199 328.869 33.5396 330.808 33.5396C331.448 33.5396 331.921 33.5906 332.227 33.6926C332.533 33.7854 332.686 33.8875 332.686 33.9988L332.45 35.1956C332.069 36.9768 331.861 37.9834 331.824 38.2153L329.486 50.9207C329.411 51.2639 329.374 51.686 329.374 52.187C329.374 53.2075 329.699 53.7178 330.348 53.7178C331.146 53.7178 332.227 52.957 333.591 51.4355ZM358.044 51.4355C358.081 51.3984 358.141 51.3799 358.225 51.3799C358.373 51.3799 358.484 51.4495 358.559 51.5886C358.633 51.7185 358.614 51.8391 358.503 51.9504C357.139 53.5461 355.915 54.7058 354.829 55.4294C353.744 56.1531 352.649 56.5149 351.545 56.5149C349.727 56.5149 348.817 55.5269 348.817 53.5508C348.817 52.9014 348.892 52.2566 349.04 51.6165L350.181 45.229C348.548 45.498 347.324 46.115 346.507 47.0798C345.691 48.0447 344.847 49.5383 343.975 51.5608C343.325 52.9988 342.783 54.0332 342.346 54.6641C341.91 55.2856 341.312 55.7495 340.551 56.0557C339.791 56.3618 338.668 56.5149 337.184 56.5149C336.386 56.5149 335.324 56.3618 333.997 56.0557C333.886 56.0557 333.83 55.9814 333.83 55.833C333.83 55.7124 333.867 55.615 333.941 55.5408C334.015 55.4666 334.09 55.448 334.164 55.4851C334.312 55.5222 334.521 55.5408 334.79 55.5408C335.746 55.5408 336.506 55.1418 337.072 54.344C337.638 53.5461 338.264 52.3865 338.951 50.865C339.823 49.0466 340.922 47.7014 342.249 46.8293C343.585 45.948 345.088 45.396 346.758 45.1733C344.29 44.9414 342.467 44.343 341.289 43.3782C340.111 42.4041 339.522 41.2351 339.522 39.8713C339.522 38.656 340.023 37.5566 341.024 36.5732C342.036 35.5806 343.413 34.8105 345.158 34.2632C346.911 33.7065 348.85 33.4282 350.974 33.4282C352.988 33.4282 354.375 33.4468 355.135 33.4839C355.896 33.521 356.402 33.6277 356.652 33.804C356.903 33.9709 356.986 34.2446 356.903 34.625L353.883 50.9207C353.809 51.2268 353.772 51.6489 353.772 52.187C353.772 53.2075 354.115 53.7178 354.801 53.7178C355.562 53.7178 356.643 52.957 358.044 51.4355ZM349.499 44.4915C349.88 44.4915 350.163 44.4729 350.348 44.4358L351.489 38.2153C351.795 36.4712 351.949 35.4275 351.949 35.0842C351.949 34.7781 351.888 34.5786 351.768 34.4858C351.656 34.3931 351.452 34.3467 351.155 34.3467C346.702 34.3467 344.476 36.1326 344.476 39.7043C344.476 41.0681 344.893 42.2092 345.728 43.1277C346.572 44.0369 347.829 44.4915 349.499 44.4915ZM380.672 33.4839C381.665 33.4839 382.551 33.8643 383.33 34.625C384.11 35.3857 384.439 36.2393 384.318 37.1855C384.244 37.7607 383.971 38.2664 383.497 38.7024C383.024 39.1384 382.444 39.3564 381.758 39.3564C381.266 39.3564 380.849 39.2729 380.505 39.106C380.162 38.9297 379.819 38.6885 379.476 38.3823C379.216 38.1226 378.989 37.937 378.794 37.8257C378.608 37.7051 378.381 37.6448 378.112 37.6448C377.694 37.6448 377.221 38.0251 376.692 38.7859L374.007 42.8354L376.567 50.7537C376.91 51.8206 377.291 52.5164 377.708 52.8411C378.126 53.1565 378.641 53.3142 379.253 53.3142C379.782 53.3142 380.273 53.1936 380.728 52.9524C381.192 52.7019 381.67 52.3123 382.161 51.7834C382.199 51.7463 382.254 51.7278 382.328 51.7278C382.477 51.7278 382.588 51.7927 382.662 51.9226C382.746 52.0525 382.732 52.1777 382.621 52.2983C381.173 53.7827 379.898 54.8774 378.794 55.5825C377.69 56.2783 376.646 56.6262 375.663 56.6262C374.633 56.6262 373.844 56.334 373.297 55.7495C372.75 55.1558 372.225 54.0981 371.724 52.5767L370.249 47.9565L367.397 52.4653C366.293 54.2095 365.453 55.3413 364.878 55.8608C364.312 56.3711 363.611 56.6262 362.776 56.6262C361.793 56.6262 360.912 56.2366 360.132 55.4573C359.353 54.678 359.038 53.8152 359.186 52.8689C359.26 52.2937 359.534 51.7974 360.007 51.3799C360.49 50.9624 361.051 50.7537 361.691 50.7537C362.229 50.7537 362.656 50.8418 362.971 51.0181C363.296 51.1851 363.63 51.4216 363.973 51.7278C364.168 51.9133 364.377 52.0757 364.599 52.2148C364.831 52.3447 365.082 52.4097 365.351 52.4097C365.768 52.4097 366.242 52.0293 366.77 51.2686L369.846 46.7598L367.397 39.3564C367.053 38.2896 366.664 37.5891 366.228 37.2551C365.792 36.9119 365.286 36.7402 364.711 36.7402C364.182 36.7402 363.69 36.8655 363.236 37.116C362.781 37.3572 362.285 37.7422 361.747 38.271C361.71 38.3081 361.654 38.3267 361.58 38.3267C361.468 38.3267 361.362 38.2617 361.26 38.1318C361.167 38.002 361.181 37.8953 361.301 37.8118C362.702 36.3367 363.964 35.2466 365.086 34.5415C366.209 33.8364 367.281 33.4839 368.301 33.4839C369.294 33.4839 370.064 33.7715 370.611 34.3467C371.168 34.9126 371.711 35.9563 372.239 37.4778L373.547 41.583L376.122 37.5891C377.18 35.8821 377.991 34.7734 378.557 34.2632C379.132 33.7437 379.837 33.4839 380.672 33.4839Z" fill="rgb(41,22,14)" fill-rule="nonzero" />
		<path id="бриллиант" d="M37.1429 0L38.0692 1.25263L50 17.3855L26.0714 39L0 17.3855L12.5126 0.923197L13.2143 0L37.1429 0ZM12.5126 0.923197L16.4518 11.9855L26.0714 39M0 17.3855L16.4518 11.9855M38.0692 1.25263L34.6578 11.9855L26.0714 39M34.6578 11.9855L16.4518 11.9855M34.6578 11.9855L50 17.3855" stroke="rgb(41,22,14)" stroke-width="3.000000" transform="matrix(0.927184,-0.374607,0.374607,0.927184,0,45.7303)" />
		<path id="бриллиант" d="M37.1429 0L38.0692 1.25263L50 17.3855L26.0714 39L0 17.3855L12.5126 0.923197L13.2143 0L37.1429 0ZM12.5126 0.923197L16.4518 11.9855L26.0714 39M0 17.3855L16.4518 11.9855M38.0692 1.25263L34.6578 11.9855L26.0714 39M34.6578 11.9855L16.4518 11.9855M34.6578 11.9855L50 17.3855" stroke="rgb(41,22,14)" stroke-width="3.000000" transform="matrix(0.927184,0.374607,-0.374607,0.927184,390.61,0)" />
	</g>
</svg>
